# Blender v2.81 (sub 16) OBJ File: 'final2.blend'
# www.blender.org
o kpin1_Cylinder.015
v -0.000000 2.550000 -0.254782
v 0.049706 2.550000 -0.249887
v 0.097501 2.550000 -0.235388
v 0.141549 2.550000 -0.211844
v 0.180158 2.550000 -0.180158
v 0.211844 2.550000 -0.141549
v 0.235388 2.550000 -0.097501
v 0.249887 2.550000 -0.049705
v 0.254782 2.550000 0.000000
v 0.249887 2.550000 0.049706
v 0.235388 2.550000 0.097501
v 0.211844 2.550000 0.141549
v 0.180158 2.550000 0.180158
v 0.141549 2.550000 0.211844
v 0.097501 2.550000 0.235388
v 0.049705 2.550000 0.249887
v -0.000000 2.550000 0.254782
v -0.049706 2.550000 0.249887
v -0.097501 2.550000 0.235388
v -0.141550 2.550000 0.211844
v -0.180158 2.550000 0.180158
v -0.211844 2.550000 0.141549
v -0.235388 2.550000 0.097501
v -0.249887 2.550000 0.049705
v -0.254782 2.550000 -0.000000
v -0.249887 2.550000 -0.049706
v -0.235388 2.550000 -0.097501
v -0.211844 2.550000 -0.141550
v -0.180158 2.550000 -0.180158
v -0.141549 2.550000 -0.211844
v -0.097501 2.550000 -0.235388
v -0.049705 2.550000 -0.249887
v -0.000000 0.700001 0.000000
v -0.000000 0.700001 0.000000
v 0.058527 2.500000 -0.294236
v 0.000000 2.500000 -0.300000
v 0.000000 0.700001 0.000000
v 0.114805 2.500000 -0.277164
v 0.000000 0.700001 0.000000
v 0.166671 2.500000 -0.249441
v 0.000000 0.700001 0.000000
v 0.212132 2.500000 -0.212132
v 0.000000 0.700001 0.000000
v 0.249441 2.500000 -0.166671
v -0.000000 0.700001 0.000000
v 0.277164 2.500000 -0.114805
v -0.000000 0.700001 0.000000
v 0.294236 2.500000 -0.058527
v 0.000000 0.700001 0.000000
v 0.300000 2.500000 0.000000
v 0.000000 0.700001 0.000000
v 0.294236 2.500000 0.058527
v -0.000000 0.700001 0.000000
v 0.277164 2.500000 0.114805
v 0.000000 0.700001 0.000000
v 0.249441 2.500000 0.166671
v 0.000000 0.700001 0.000000
v 0.212132 2.500000 0.212132
v -0.000000 0.700001 0.000000
v 0.166671 2.500000 0.249441
v 0.000000 0.700001 0.000000
v 0.114805 2.500000 0.277164
v 0.000000 0.700001 0.000000
v 0.058527 2.500000 0.294236
v -0.000000 0.700001 0.000000
v -0.000000 2.500000 0.300000
v 0.000000 0.700001 0.000000
v -0.058527 2.500000 0.294236
v 0.000000 0.700001 0.000000
v -0.114805 2.500000 0.277164
v -0.000000 0.700001 0.000000
v -0.166671 2.500000 0.249441
v 0.000000 0.700001 0.000000
v -0.212132 2.500000 0.212132
v 0.000000 0.700001 0.000000
v -0.249441 2.500000 0.166671
v 0.000000 0.700001 0.000000
v -0.277164 2.500000 0.114805
v 0.000000 0.700001 0.000000
v -0.294236 2.500000 0.058527
v -0.000000 0.700001 0.000000
v -0.300000 2.500000 -0.000000
v 0.000000 0.700001 0.000000
v -0.294236 2.500000 -0.058527
v 0.000000 0.700001 0.000000
v -0.277164 2.500000 -0.114805
v 0.000000 0.700001 0.000000
v -0.249441 2.500000 -0.166671
v 0.000000 0.700001 0.000000
v -0.212132 2.500000 -0.212132
v 0.000000 0.700001 0.000000
v -0.166671 2.500000 -0.249441
v -0.000000 0.700001 0.000000
v -0.114805 2.500000 -0.277164
v 0.000000 0.700001 0.000000
v -0.058527 2.500000 -0.294236
v 0.000000 1.000000 -0.300000
v 0.058527 1.000000 -0.294236
v 0.114805 1.000000 -0.277164
v 0.166671 1.000000 -0.249441
v 0.212132 1.000000 -0.212132
v 0.249441 1.000000 -0.166671
v 0.277164 1.000000 -0.114805
v 0.294236 1.000000 -0.058527
v 0.300000 1.000000 0.000000
v 0.294236 1.000000 0.058527
v 0.277164 1.000000 0.114805
v 0.249441 1.000000 0.166671
v 0.212132 1.000000 0.212132
v 0.166671 1.000000 0.249441
v 0.114805 1.000000 0.277164
v 0.058527 1.000000 0.294236
v -0.000000 1.000000 0.300000
v -0.058527 1.000000 0.294236
v -0.114805 1.000000 0.277164
v -0.166671 1.000000 0.249441
v -0.212132 1.000000 0.212132
v -0.249441 1.000000 0.166671
v -0.277164 1.000000 0.114805
v -0.294236 1.000000 0.058527
v -0.300000 1.000000 -0.000000
v -0.294236 1.000000 -0.058527
v -0.277164 1.000000 -0.114805
v -0.249441 1.000000 -0.166671
v -0.212132 1.000000 -0.212132
v -0.166671 1.000000 -0.249441
v -0.114805 1.000000 -0.277164
v -0.058527 1.000000 -0.294236
vt 1.000000 1.000000
vt 0.968750 0.500000
vt 1.000000 0.500000
vt 0.968750 1.000000
vt 0.937500 0.500000
vt 0.937500 1.000000
vt 0.906250 0.500000
vt 0.906250 1.000000
vt 0.875000 0.500000
vt 0.875000 1.000000
vt 0.843750 0.500000
vt 0.843750 1.000000
vt 0.812500 0.500000
vt 0.812500 1.000000
vt 0.781250 0.500000
vt 0.781250 1.000000
vt 0.750000 0.500000
vt 0.750000 1.000000
vt 0.718750 0.500000
vt 0.718750 1.000000
vt 0.687500 0.500000
vt 0.687500 1.000000
vt 0.656250 0.500000
vt 0.656250 1.000000
vt 0.625000 0.500000
vt 0.625000 1.000000
vt 0.593750 0.500000
vt 0.593750 1.000000
vt 0.562500 0.500000
vt 0.562500 1.000000
vt 0.531250 0.500000
vt 0.531250 1.000000
vt 0.500000 0.500000
vt 0.500000 1.000000
vt 0.468750 0.500000
vt 0.468750 1.000000
vt 0.437500 0.500000
vt 0.437500 1.000000
vt 0.406250 0.500000
vt 0.406250 1.000000
vt 0.375000 0.500000
vt 0.375000 1.000000
vt 0.343750 0.500000
vt 0.343750 1.000000
vt 0.312500 0.500000
vt 0.312500 1.000000
vt 0.281250 0.500000
vt 0.281250 1.000000
vt 0.250000 0.500000
vt 0.250000 1.000000
vt 0.218750 0.500000
vt 0.218750 1.000000
vt 0.187500 0.500000
vt 0.187500 1.000000
vt 0.156250 0.500000
vt 0.156250 1.000000
vt 0.125000 0.500000
vt 0.125000 1.000000
vt 0.093750 0.500000
vt 0.093750 1.000000
vt 0.062500 0.500000
vt 0.438310 0.171999
vt 0.438310 0.328001
vt 0.328001 0.438311
vt 0.062500 1.000000
vt 0.031250 0.500000
vt 0.031250 1.000000
vt 0.000000 0.500000
vt 0.289764 0.449909
vt 0.250000 0.490000
vt 0.250000 0.453826
vt 0.341844 0.471731
vt 0.296822 0.485388
vt 0.363239 0.419475
vt 0.394127 0.394127
vt 0.383337 0.449553
vt 0.419475 0.363239
vt 0.419706 0.419706
vt 0.449553 0.383337
vt 0.449909 0.289764
vt 0.471731 0.341844
vt 0.453826 0.250000
vt 0.485388 0.296822
vt 0.449909 0.210236
vt 0.490000 0.250000
vt 0.471731 0.158156
vt 0.485388 0.203178
vt 0.419475 0.136761
vt 0.419706 0.080294
vt 0.449553 0.116663
vt 0.363240 0.080525
vt 0.394127 0.105873
vt 0.328001 0.061689
vt 0.383337 0.050447
vt 0.296822 0.014612
vt 0.341844 0.028269
vt 0.250000 0.046174
vt 0.289764 0.050091
vt 0.203178 0.014612
vt 0.250000 0.010000
vt 0.210236 0.050091
vt 0.158156 0.028269
vt 0.171999 0.061689
vt 0.116663 0.050447
vt 0.136760 0.080525
vt 0.080294 0.080294
vt 0.080525 0.136760
vt 0.105873 0.105874
vt 0.061690 0.171999
vt 0.050447 0.116663
vt 0.014611 0.203179
vt 0.028269 0.158156
vt 0.046174 0.250000
vt 0.050091 0.210236
vt 0.014612 0.296822
vt 0.010000 0.250000
vt 0.050091 0.289765
vt 0.028269 0.341844
vt 0.080525 0.363240
vt 0.061690 0.328001
vt 0.105874 0.394127
vt 0.050447 0.383337
vt 0.136761 0.419475
vt 0.080295 0.419706
vt 0.171999 0.438311
vt 0.116663 0.449553
vt 0.203179 0.485389
vt 0.158156 0.471731
vt 0.484375 0.500000
vt 0.484375 0.500000
vt 0.484375 0.500000
vt 0.210236 0.449909
vt 0.484375 0.500000
vt 0.484375 0.500000
vt 0.484375 0.500000
vt 0.484375 0.500000
vt 0.484375 0.500000
vt 0.484375 0.500000
vt 0.484375 0.500000
vt 0.484375 0.500000
vt 0.484375 0.500000
vt 0.484375 0.500000
vt 0.484375 0.500000
vt 0.484375 0.500000
vt 0.484375 0.500000
vt 0.484375 0.500000
vt 0.484375 0.500000
vt 0.484375 0.500000
vt 0.484375 0.500000
vt 0.484375 0.500000
vt 0.484375 0.500000
vt 0.484375 0.500000
vt 0.484375 0.500000
vt 0.484375 0.500000
vt 0.484375 0.500000
vt 0.484375 0.500000
vt 0.484375 0.500000
vt 0.484375 0.500000
vt 0.484375 0.500000
vt 0.484375 0.500000
vt 0.484375 0.500000
vt 0.000000 1.000000
vn 0.0980 0.0000 -0.9952
vn 0.2903 0.0000 -0.9569
vn 0.4714 0.0000 -0.8819
vn 0.6344 0.0000 -0.7730
vn 0.7730 0.0000 -0.6344
vn 0.8819 0.0000 -0.4714
vn 0.9569 0.0000 -0.2903
vn 0.9952 0.0000 -0.0980
vn 0.9952 0.0000 0.0980
vn 0.9569 0.0000 0.2903
vn 0.8819 0.0000 0.4714
vn 0.7730 0.0000 0.6344
vn 0.6344 0.0000 0.7730
vn 0.4714 0.0000 0.8819
vn 0.2903 0.0000 0.9569
vn 0.0980 0.0000 0.9952
vn -0.0980 0.0000 0.9952
vn -0.2903 0.0000 0.9569
vn -0.4714 0.0000 0.8819
vn -0.6344 0.0000 0.7730
vn -0.7730 0.0000 0.6344
vn -0.8819 0.0000 0.4714
vn -0.9569 0.0000 0.2903
vn -0.9952 0.0000 0.0980
vn -0.9952 0.0000 -0.0980
vn -0.9569 0.0000 -0.2903
vn -0.8819 0.0000 -0.4714
vn -0.7730 0.0000 -0.6344
vn -0.6344 0.0000 -0.7730
vn -0.4714 0.0000 -0.8819
vn 0.0000 1.0000 0.0000
vn -0.2903 0.0000 -0.9569
vn -0.0980 0.0000 -0.9952
vn 0.0729 0.6690 -0.7397
vn 0.2158 0.6690 -0.7113
vn 0.3504 0.6690 -0.6555
vn 0.4715 0.6690 -0.5746
vn 0.5746 0.6690 -0.4715
vn 0.6555 0.6690 -0.3504
vn 0.7113 0.6690 -0.2158
vn 0.7397 0.6690 -0.0729
vn 0.7397 0.6690 0.0729
vn 0.7113 0.6690 0.2158
vn 0.6555 0.6690 0.3504
vn 0.5746 0.6690 0.4715
vn 0.4715 0.6690 0.5746
vn 0.3504 0.6690 0.6555
vn 0.2158 0.6690 0.7113
vn 0.0729 0.6690 0.7397
vn -0.0729 0.6690 0.7397
vn -0.2158 0.6690 0.7113
vn -0.3504 0.6690 0.6555
vn -0.4715 0.6690 0.5746
vn -0.5746 0.6690 0.4715
vn -0.6555 0.6690 0.3504
vn -0.7113 0.6690 0.2158
vn -0.7397 0.6690 0.0729
vn -0.7397 0.6690 -0.0729
vn -0.7113 0.6690 -0.2158
vn -0.6555 0.6690 -0.3504
vn -0.5746 0.6690 -0.4715
vn -0.4715 0.6690 -0.5746
vn -0.3504 0.6690 -0.6555
vn -0.2158 0.6690 -0.7113
vn 0.0000 0.0000 1.0000
vn -0.0729 0.6690 -0.7397
vn 0.3152 -0.7093 -0.6305
vn 0.0000 -0.6000 -0.8000
vn 0.3341 -0.7054 -0.6251
vn 0.4497 -0.7054 -0.5479
vn 0.5479 -0.7054 -0.4497
vn 0.6251 -0.7054 -0.3341
vn 0.6783 -0.7054 -0.2058
vn 0.7071 -0.7071 0.0000
vn 0.7054 -0.7054 0.0695
vn 0.6783 -0.7054 0.2058
vn 0.6251 -0.7054 0.3341
vn 0.5479 -0.7054 0.4497
vn 0.3341 -0.7054 0.6251
vn 0.2058 -0.7054 0.6783
vn 0.0695 -0.7054 0.7054
vn -0.0695 -0.7054 0.7054
vn -0.7071 -0.7071 0.0000
vn -0.3341 -0.7054 0.6251
vn -0.4497 -0.7054 0.5479
vn -0.5479 -0.7054 0.4497
vn -0.6251 -0.7054 0.3341
vn -1.0000 0.0000 0.0000
vn -0.7054 -0.7054 0.0695
vn -0.7054 -0.7054 -0.0695
vn 0.0000 -0.1240 -0.9923
vn -0.6251 -0.7054 -0.3341
vn -0.5479 -0.7054 -0.4497
vn -0.4497 -0.7054 -0.5479
vn -0.3341 -0.7054 -0.6251
vn -0.1333 -0.7333 -0.6667
vn -0.0695 -0.7054 -0.7054
vn 0.0000 1.0000 -0.0001
vn 0.0000 1.0000 0.0001
vn 0.0000 0.1118 0.9937
vn 0.0000 -0.0450 -0.9990
vn 0.0000 -0.0225 -0.9997
vn 0.0000 0.0931 0.9957
vn 0.0000 0.3670 -0.9302
vn 0.0000 0.0227 -0.9997
vn 0.0695 -0.7054 -0.7054
vn 0.2058 -0.7054 -0.6783
vn -0.6247 0.4685 0.6247
vn -0.7071 0.7071 0.0000
vn 0.3313 -0.3313 0.8835
vn 0.7054 -0.7054 -0.0695
vn 0.0000 -1.0000 0.0000
vn 0.1240 0.0000 -0.9923
vn 0.4497 -0.7054 0.5479
vn -0.5547 0.8321 0.0000
vn -0.8944 0.4472 0.0000
vn 0.8823 -0.3676 0.2941
vn -0.6773 0.5203 -0.5203
vn -0.2058 -0.7054 0.6783
vn 0.0000 -0.4472 0.8944
vn 0.5547 0.8321 0.0000
vn 0.7071 0.7071 0.0000
vn -0.6783 -0.7054 0.2058
vn -0.5812 -0.8137 0.0000
vn 0.1220 0.1220 -0.9850
vn -0.6783 -0.7054 -0.2058
vn 0.0000 0.1240 0.9923
vn -0.5547 -0.8321 0.0000
vn 0.2182 0.4364 0.8729
vn -0.2058 -0.7054 -0.6783
vn 0.0000 0.7380 0.6748
s off
f 36/1/1 98/2/1 97/3/1
f 35/4/2 99/5/2 98/2/2
f 38/6/3 100/7/3 99/5/3
f 40/8/4 101/9/4 100/7/4
f 42/10/5 102/11/5 101/9/5
f 44/12/6 103/13/6 102/11/6
f 46/14/7 104/15/7 103/13/7
f 48/16/8 105/17/8 104/15/8
f 50/18/9 106/19/9 105/17/9
f 52/20/10 107/21/10 106/19/10
f 54/22/11 108/23/11 107/21/11
f 56/24/12 109/25/12 108/23/12
f 58/26/13 110/27/13 109/25/13
f 60/28/14 111/29/14 110/27/14
f 62/30/15 112/31/15 111/29/15
f 64/32/16 113/33/16 112/31/16
f 66/34/17 114/35/17 113/33/17
f 68/36/18 115/37/18 114/35/18
f 70/38/19 116/39/19 115/37/19
f 72/40/20 117/41/20 116/39/20
f 74/42/21 118/43/21 117/41/21
f 76/44/22 119/45/22 118/43/22
f 78/46/23 120/47/23 119/45/23
f 80/48/24 121/49/24 120/47/24
f 82/50/25 122/51/25 121/49/25
f 84/52/26 123/53/26 122/51/26
f 86/54/27 124/55/27 123/53/27
f 88/56/28 125/57/28 124/55/28
f 90/58/29 126/59/29 125/57/29
f 92/60/30 127/61/30 126/59/30
f 11/62/31 7/63/31 3/64/31
f 94/65/32 128/66/32 127/61/32
f 96/67/33 97/68/33 128/66/33
f 2/69/34 36/70/34 1/71/34
f 2/69/35 38/72/35 35/73/35
f 4/74/36 38/72/36 3/64/36
f 5/75/37 40/76/37 4/74/37
f 6/77/38 42/78/38 5/75/38
f 7/63/39 44/79/39 6/77/39
f 8/80/40 46/81/40 7/63/40
f 9/82/41 48/83/41 8/80/41
f 10/84/42 50/85/42 9/82/42
f 10/84/43 54/86/43 52/87/43
f 12/88/44 54/86/44 11/62/44
f 12/88/45 58/89/45 56/90/45
f 14/91/46 58/89/46 13/92/46
f 15/93/47 60/94/47 14/91/47
f 15/93/48 64/95/48 62/96/48
f 17/97/49 64/95/49 16/98/49
f 17/97/50 68/99/50 66/100/50
f 18/101/51 70/102/51 68/99/51
f 19/103/52 72/104/52 70/102/52
f 20/105/53 74/106/53 72/104/53
f 22/107/54 74/106/54 21/108/54
f 23/109/55 76/110/55 22/107/55
f 23/109/56 80/111/56 78/112/56
f 25/113/57 80/111/57 24/114/57
f 25/113/58 84/115/58 82/116/58
f 26/117/59 86/118/59 84/115/59
f 28/119/60 86/118/60 27/120/60
f 29/121/61 88/122/61 28/119/61
f 30/123/62 90/124/62 29/121/62
f 31/125/63 92/126/63 30/123/63
f 31/125/64 96/127/64 94/128/64
f 39/129/65 41/130/65 73/131/65
f 1/71/66 96/127/66 32/132/66
f 33/133/67 98/2/67 34/134/67
f 34/134/68 99/5/68 37/135/68
f 39/129/69 99/5/69 100/7/69
f 41/130/70 100/7/70 101/9/70
f 43/136/71 101/9/71 102/11/71
f 45/137/72 102/11/72 103/13/72
f 47/138/73 103/13/73 104/15/73
f 47/138/74 105/17/74 49/139/74
f 51/140/75 105/17/75 106/19/75
f 53/141/76 106/19/76 107/21/76
f 55/142/77 107/21/77 108/23/77
f 57/143/78 108/23/78 109/25/78
f 57/143/74 110/27/74 59/144/74
f 61/145/79 110/27/79 111/29/79
f 63/146/80 111/29/80 112/31/80
f 65/147/81 112/31/81 113/33/81
f 67/148/82 113/33/82 114/35/82
f 67/148/83 115/37/83 69/149/83
f 71/150/84 115/37/84 116/39/84
f 73/131/85 116/39/85 117/41/85
f 75/151/86 117/41/86 118/43/86
f 77/152/87 118/43/87 119/45/87
f 77/152/88 120/47/88 79/153/88
f 81/154/89 120/47/89 121/49/89
f 83/155/90 121/49/90 122/51/90
f 83/155/91 123/53/91 85/156/91
f 87/157/92 123/53/92 124/55/92
f 89/158/93 124/55/93 125/57/93
f 91/159/94 125/57/94 126/59/94
f 93/160/95 126/59/95 127/61/95
f 93/160/96 128/66/96 95/161/96
f 33/133/97 128/66/97 97/68/97
f 36/1/1 35/4/1 98/2/1
f 35/4/2 38/6/2 99/5/2
f 38/6/3 40/8/3 100/7/3
f 40/8/4 42/10/4 101/9/4
f 42/10/5 44/12/5 102/11/5
f 44/12/6 46/14/6 103/13/6
f 46/14/7 48/16/7 104/15/7
f 48/16/8 50/18/8 105/17/8
f 50/18/9 52/20/9 106/19/9
f 52/20/10 54/22/10 107/21/10
f 54/22/11 56/24/11 108/23/11
f 56/24/12 58/26/12 109/25/12
f 58/26/13 60/28/13 110/27/13
f 60/28/14 62/30/14 111/29/14
f 62/30/15 64/32/15 112/31/15
f 64/32/16 66/34/16 113/33/16
f 66/34/17 68/36/17 114/35/17
f 68/36/18 70/38/18 115/37/18
f 70/38/19 72/40/19 116/39/19
f 72/40/20 74/42/20 117/41/20
f 74/42/21 76/44/21 118/43/21
f 76/44/22 78/46/22 119/45/22
f 78/46/23 80/48/23 120/47/23
f 80/48/24 82/50/24 121/49/24
f 82/50/25 84/52/25 122/51/25
f 84/52/26 86/54/26 123/53/26
f 86/54/27 88/56/27 124/55/27
f 88/56/28 90/58/28 125/57/28
f 90/58/29 92/60/29 126/59/29
f 92/60/30 94/65/30 127/61/30
f 3/64/31 2/69/31 31/125/31
f 2/69/31 1/71/31 31/125/31
f 1/71/98 32/132/98 31/125/98
f 31/125/31 30/123/31 29/121/31
f 29/121/31 28/119/31 27/120/31
f 27/120/31 26/117/31 25/113/31
f 25/113/31 24/114/31 23/109/31
f 23/109/31 22/107/31 21/108/31
f 21/108/31 20/105/31 19/103/31
f 19/103/99 18/101/99 17/97/99
f 17/97/31 16/98/31 19/103/31
f 16/98/31 15/93/31 19/103/31
f 15/93/31 14/91/31 13/92/31
f 13/92/31 12/88/31 11/62/31
f 11/62/31 10/84/31 9/82/31
f 9/82/31 8/80/31 11/62/31
f 8/80/31 7/63/31 11/62/31
f 7/63/31 6/77/31 5/75/31
f 5/75/31 4/74/31 7/63/31
f 4/74/31 3/64/31 7/63/31
f 31/125/31 29/121/31 27/120/31
f 27/120/31 25/113/31 23/109/31
f 23/109/31 21/108/31 19/103/31
f 15/93/31 13/92/31 11/62/31
f 3/64/31 31/125/31 19/103/31
f 31/125/31 27/120/31 19/103/31
f 27/120/31 23/109/31 19/103/31
f 19/103/31 15/93/31 3/64/31
f 15/93/31 11/62/31 3/64/31
f 94/65/32 96/67/32 128/66/32
f 96/67/33 36/162/33 97/68/33
f 2/69/34 35/73/34 36/70/34
f 2/69/35 3/64/35 38/72/35
f 4/74/36 40/76/36 38/72/36
f 5/75/37 42/78/37 40/76/37
f 6/77/38 44/79/38 42/78/38
f 7/63/39 46/81/39 44/79/39
f 8/80/40 48/83/40 46/81/40
f 9/82/41 50/85/41 48/83/41
f 10/84/42 52/87/42 50/85/42
f 10/84/43 11/62/43 54/86/43
f 12/88/44 56/90/44 54/86/44
f 12/88/45 13/92/45 58/89/45
f 14/91/46 60/94/46 58/89/46
f 15/93/47 62/96/47 60/94/47
f 15/93/48 16/98/48 64/95/48
f 17/97/49 66/100/49 64/95/49
f 17/97/50 18/101/50 68/99/50
f 18/101/51 19/103/51 70/102/51
f 19/103/52 20/105/52 72/104/52
f 20/105/53 21/108/53 74/106/53
f 22/107/54 76/110/54 74/106/54
f 23/109/55 78/112/55 76/110/55
f 23/109/56 24/114/56 80/111/56
f 25/113/57 82/116/57 80/111/57
f 25/113/58 26/117/58 84/115/58
f 26/117/59 27/120/59 86/118/59
f 28/119/60 88/122/60 86/118/60
f 29/121/61 90/124/61 88/122/61
f 30/123/62 92/126/62 90/124/62
f 31/125/63 94/128/63 92/126/63
f 31/125/64 32/132/64 96/127/64
f 61/145/31 63/146/31 65/147/31
f 67/148/100 69/149/100 71/150/100
f 61/145/101 65/147/101 67/148/101
f 93/160/31 95/161/31 33/133/31
f 61/145/102 67/148/102 71/150/102
f 93/160/103 33/133/103 34/134/103
f 45/137/104 47/138/104 49/139/104
f 91/159/31 93/160/31 34/134/31
f 34/134/31 37/135/31 39/129/31
f 41/130/65 43/136/65 45/137/65
f 91/159/31 34/134/31 39/129/31
f 41/130/31 45/137/31 49/139/31
f 89/158/65 91/159/65 39/129/65
f 41/130/65 49/139/65 51/140/65
f 87/157/65 89/158/65 39/129/65
f 41/130/31 51/140/31 53/141/31
f 85/156/65 87/157/65 39/129/65
f 41/130/65 53/141/65 55/142/65
f 83/155/31 85/156/31 39/129/31
f 41/130/65 55/142/65 57/143/65
f 81/154/31 83/155/31 39/129/31
f 41/130/65 57/143/65 59/144/65
f 79/153/105 81/154/105 39/129/105
f 41/130/31 59/144/31 61/145/31
f 77/152/31 79/153/31 39/129/31
f 41/130/31 61/145/31 71/150/31
f 75/151/65 77/152/65 39/129/65
f 41/130/65 71/150/65 73/131/65
f 73/131/65 75/151/65 39/129/65
f 1/71/66 36/70/66 96/127/66
f 33/133/106 97/68/106 98/2/106
f 34/134/107 98/2/107 99/5/107
f 39/129/108 37/135/108 99/5/108
f 41/130/65 39/129/65 100/7/65
f 43/136/65 41/130/65 101/9/65
f 45/137/109 43/136/109 102/11/109
f 47/138/110 45/137/110 103/13/110
f 47/138/111 104/15/111 105/17/111
f 51/140/109 49/139/109 105/17/109
f 53/141/112 51/140/112 106/19/112
f 55/142/113 53/141/113 107/21/113
f 57/143/65 55/142/65 108/23/65
f 57/143/114 109/25/114 110/27/114
f 61/145/115 59/144/115 110/27/115
f 63/146/116 61/145/116 111/29/116
f 65/147/117 63/146/117 112/31/117
f 67/148/118 65/147/118 113/33/118
f 67/148/119 114/35/119 115/37/119
f 71/150/120 69/149/120 115/37/120
f 73/131/121 71/150/121 116/39/121
f 75/151/65 73/131/65 117/41/65
f 77/152/122 75/151/122 118/43/122
f 77/152/123 119/45/123 120/47/123
f 81/154/124 79/153/124 120/47/124
f 83/155/125 81/154/125 121/49/125
f 83/155/126 122/51/126 123/53/126
f 87/157/127 85/156/127 123/53/127
f 89/158/65 87/157/65 124/55/65
f 91/159/128 89/158/128 125/57/128
f 93/160/129 91/159/129 126/59/129
f 93/160/130 127/61/130 128/66/130
f 33/133/131 95/161/131 128/66/131
