# Blender v2.81 (sub 16) OBJ File: 'final2.blend'
# www.blender.org
o Cube.003_Cube.011
v 0.050000 -0.500000 16.000000
v 0.050000 -0.199940 16.004887
v -0.050000 -0.199940 16.004887
v -0.050000 -0.500000 16.000000
v -0.050000 0.350000 4.950001
v 0.050000 0.350000 4.950001
v -0.050000 -0.199940 11.383387
v -0.050000 0.049980 5.231880
v -0.050000 0.049925 5.186478
v -0.050000 -0.449489 5.022955
v -0.050000 -0.199940 10.696169
v -0.050000 -0.199936 10.008950
v -0.050000 -0.199888 9.321707
v -0.050000 -0.199624 8.634359
v -0.050000 -0.198664 7.946947
v -0.050000 -0.195881 7.261299
v -0.050000 -0.188863 6.590805
v -0.050000 -0.173556 6.000827
v -0.050000 -0.149367 5.618666
v -0.050000 -0.121616 5.433349
v -0.050000 -0.093127 5.349276
v -0.050000 -0.064518 5.308880
v -0.050000 -0.035895 5.285205
v -0.050000 -0.007270 5.266685
v -0.050000 0.021355 5.249233
v 0.050000 0.049980 5.231880
v 0.050000 -0.199940 11.383387
v 0.050000 -0.449489 5.022955
v 0.050000 0.049925 5.186478
v 0.050000 0.021355 5.249233
v 0.050000 -0.007270 5.266685
v 0.050000 -0.035895 5.285205
v 0.050000 -0.064518 5.308880
v 0.050000 -0.093127 5.349276
v 0.050000 -0.121616 5.433349
v 0.050000 -0.149367 5.618666
v 0.050000 -0.173556 6.000827
v 0.050000 -0.188863 6.590805
v 0.050000 -0.195881 7.261299
v 0.050000 -0.198664 7.946947
v 0.050000 -0.199624 8.634359
v 0.050000 -0.199888 9.321707
v 0.050000 -0.199936 10.008950
v 0.050000 -0.199940 10.696169
v -0.050000 0.225040 5.125754
v -0.050000 0.350000 4.950001
v -0.050000 0.239021 5.117280
v -0.050000 0.253002 5.108788
v -0.050000 0.266983 5.100222
v -0.050000 0.280958 5.091422
v -0.050000 0.294898 5.082115
v -0.050000 0.308677 5.071867
v -0.050000 0.321854 5.060140
v -0.050000 0.333258 5.046753
v -0.050000 0.341346 5.032724
v -0.050000 0.346019 5.019346
v -0.050000 0.348387 5.006884
v -0.050000 0.349457 4.995079
v -0.050000 0.349865 4.983648
v -0.050000 0.349981 4.972391
v -0.050000 0.349999 4.961191
v 0.050000 0.350000 4.950001
v 0.050000 0.225040 5.125754
v 0.050000 0.349999 4.961191
v 0.050000 0.349981 4.972391
v 0.050000 0.349865 4.983648
v 0.050000 0.349457 4.995079
v 0.050000 0.348387 5.006884
v 0.050000 0.346019 5.019346
v 0.050000 0.341346 5.032724
v 0.050000 0.333258 5.046753
v 0.050000 0.321854 5.060140
v 0.050000 0.308677 5.071867
v 0.050000 0.294898 5.082115
v 0.050000 0.280958 5.091422
v 0.050000 0.266983 5.100222
v 0.050000 0.253002 5.108788
v 0.050000 0.239021 5.117280
v -0.050000 -0.375000 4.950001
v -0.050000 -0.500000 7.950001
v -0.050000 -0.449501 5.022936
v -0.050000 -0.388986 4.950016
v -0.050000 -0.402971 4.950459
v -0.050000 -0.416956 4.953239
v -0.050000 -0.430936 4.963032
v -0.050000 -0.444880 4.988714
v -0.050000 -0.458664 5.045572
v -0.050000 -0.471845 5.157751
v -0.050000 -0.483253 5.351924
v -0.050000 -0.491344 5.625712
v -0.050000 -0.496018 5.942067
v -0.050000 -0.498387 6.272870
v -0.050000 -0.499457 6.607540
v -0.050000 -0.499865 6.943050
v -0.050000 -0.499981 7.278692
v -0.050000 -0.499999 7.614347
v 0.050000 -0.500000 7.950001
v 0.050000 -0.375000 4.950001
v 0.050000 -0.449501 5.022936
v 0.050000 -0.499999 7.614347
v 0.050000 -0.499981 7.278692
v 0.050000 -0.499865 6.943050
v 0.050000 -0.499457 6.607540
v 0.050000 -0.498387 6.272870
v 0.050000 -0.496018 5.942067
v 0.050000 -0.491344 5.625712
v 0.050000 -0.483253 5.351924
v 0.050000 -0.471845 5.157751
v 0.050000 -0.458664 5.045572
v 0.050000 -0.444880 4.988714
v 0.050000 -0.430936 4.963032
v 0.050000 -0.416956 4.953239
v 0.050000 -0.402971 4.950459
v 0.050000 -0.388986 4.950016
vt 0.854962 0.665434
vt 0.854960 0.665435
vt 0.847117 0.488676
vt 0.983323 0.670347
vt 0.935164 0.655879
vt 0.963275 0.659657
vt 0.866916 0.669886
vt 0.983323 0.670347
vt 0.983324 0.669672
vt 0.983069 0.666912
vt 0.854962 0.665434
vt 0.854960 0.665435
vt 0.866916 0.669886
vt 0.935177 0.653137
vt 0.935177 0.653137
vt 0.847117 0.488676
vt 0.847844 0.002643
vt 0.895605 0.281570
vt 0.896023 0.002540
vt 0.895605 0.281570
vt 0.903204 0.629658
vt 0.907644 0.640864
vt 0.899355 0.606569
vt 0.896951 0.570938
vt 0.895543 0.323062
vt 0.895543 0.323062
vt 0.895482 0.364554
vt 0.895427 0.406048
vt 0.895407 0.447548
vt 0.895427 0.406048
vt 0.895500 0.489052
vt 0.895884 0.530451
vt 0.895500 0.489052
vt 0.895884 0.530451
vt 0.896951 0.570938
vt 0.899355 0.606569
vt 0.903204 0.629658
vt 0.907644 0.640864
vt 0.912210 0.645958
vt 0.912210 0.645958
vt 0.916800 0.648415
vt 0.916800 0.648415
vt 0.921394 0.649863
vt 0.921394 0.649863
vt 0.925988 0.651000
vt 0.925988 0.651000
vt 0.930582 0.652071
vt 0.930582 0.652071
vt 0.847844 0.002643
vt 0.963275 0.659657
vt 0.965519 0.660177
vt 0.965519 0.660177
vt 0.967763 0.660699
vt 0.967763 0.660699
vt 0.970007 0.661225
vt 0.970007 0.661225
vt 0.972251 0.661765
vt 0.972251 0.661765
vt 0.974488 0.662336
vt 0.974488 0.662336
vt 0.976699 0.662963
vt 0.976699 0.662963
vt 0.978814 0.663680
vt 0.978814 0.663680
vt 0.980644 0.664495
vt 0.980644 0.664495
vt 0.981941 0.665347
vt 0.981941 0.665347
vt 0.982690 0.666158
vt 0.982690 0.666158
vt 0.983069 0.666912
vt 0.983240 0.667625
vt 0.983240 0.667625
vt 0.983305 0.668316
vt 0.983305 0.668316
vt 0.983322 0.668996
vt 0.983322 0.668996
vt 0.983324 0.669672
vt 0.983323 0.670347
vt 0.864670 0.669876
vt 0.862425 0.669840
vt 0.860179 0.669664
vt 0.857936 0.669063
vt 0.855699 0.667504
vt 0.853491 0.664062
vt 0.851385 0.657281
vt 0.849571 0.645550
vt 0.848296 0.629014
vt 0.847575 0.609911
vt 0.847224 0.589937
vt 0.847083 0.569730
vt 0.847047 0.549472
vt 0.847059 0.529207
vt 0.847086 0.508942
vt 0.847086 0.508942
vt 0.847059 0.529207
vt 0.847047 0.549472
vt 0.847083 0.569730
vt 0.847224 0.589937
vt 0.847575 0.609911
vt 0.848296 0.629014
vt 0.849571 0.645550
vt 0.851385 0.657281
vt 0.853491 0.664062
vt 0.855699 0.667504
vt 0.857936 0.669063
vt 0.860179 0.669664
vt 0.862425 0.669840
vt 0.864670 0.669876
vt 0.895482 0.364554
vt 0.895407 0.447548
vt 0.896023 0.002540
vt 0.935164 0.655879
vt 0.983323 0.670347
vn -1.0000 0.0000 0.0000
vn 1.0000 0.0000 0.0000
vn 0.0000 0.5184 0.8551
vn 0.0000 -1.0000 0.0000
vn 0.0000 1.0000 0.0000
vn 0.0000 1.0000 0.0004
vn 0.0000 1.0000 0.0041
vn 0.0000 0.9999 0.0105
vn 0.0000 0.9997 0.0259
vn 0.0000 0.9980 0.0632
vn 0.0000 0.9890 0.1481
vn 0.0000 0.9471 0.3209
vn 0.0000 0.8161 0.5780
vn 0.0000 0.6374 0.7706
vn 0.0000 0.5432 0.8396
vn 0.0000 0.5206 0.8538
vn 0.0000 0.5183 0.8552
vn 0.0000 0.5191 0.8547
vn 0.0000 0.5225 0.8527
vn 0.0000 0.5328 0.8462
vn 0.0000 0.5553 0.8317
vn 0.0000 0.5968 0.8024
vn 0.0000 0.6648 0.7470
vn 0.0000 0.7612 0.6485
vn 0.0000 0.8663 0.4995
vn 0.0000 0.9441 0.3297
vn 0.0000 0.9824 0.1867
vn 0.0000 0.9959 0.0903
vn 0.0000 0.9994 0.0357
vn 0.0000 0.9999 0.0103
vn 0.0000 1.0000 0.0016
vn 0.0000 1.0000 0.0001
vn 0.0000 0.0000 1.0000
vn 0.0000 -1.0000 -0.0001
vn 0.0000 -1.0000 -0.0003
vn 0.0000 -1.0000 -0.0012
vn 0.0000 -1.0000 -0.0032
vn 0.0000 -1.0000 -0.0072
vn 0.0000 -0.9999 -0.0148
vn 0.0000 -0.9996 -0.0295
vn 0.0000 -0.9983 -0.0587
vn 0.0000 -0.9932 -0.1167
vn 0.0000 -0.9719 -0.2356
vn 0.0000 -0.8788 -0.4772
vn 0.0000 -0.5737 -0.8191
vn 0.0000 -0.1950 -0.9808
vn 0.0000 -0.0316 -0.9995
vn 0.0000 -0.0011 -1.0000
vn 0.0000 0.0000 -1.0000
vn 0.0000 -0.0163 0.9999
vn 0.0000 1.0000 0.0014
vn 0.0000 -0.9983 -0.0586
vn 0.0000 -0.5737 -0.8190
s off
f 10/1/1 81/2/1 80/3/1
f 46/4/1 9/5/1 45/6/1
f 9/5/1 79/7/1 10/1/1
f 6/8/2 64/9/2 68/10/2
f 28/11/2 99/12/2 98/13/2
f 26/14/3 45/6/3 8/15/3
f 97/16/4 4/17/4 80/3/4
f 7/18/5 2/19/5 27/20/5
f 19/21/1 20/22/1 10/1/1
f 37/23/2 38/24/2 28/11/2
f 27/20/5 11/25/5 7/18/5
f 44/26/5 12/27/5 11/25/5
f 42/28/6 14/29/6 13/30/6
f 40/31/7 16/32/7 15/33/7
f 39/34/8 17/35/8 16/32/8
f 38/24/9 18/36/9 17/35/9
f 37/23/10 19/21/10 18/36/10
f 36/37/11 20/22/11 19/21/11
f 35/38/12 21/39/12 20/22/12
f 34/40/13 22/41/13 21/39/13
f 33/42/14 23/43/14 22/41/14
f 32/44/15 24/45/15 23/43/15
f 31/46/16 25/47/16 24/45/16
f 30/48/3 8/15/3 25/47/3
f 27/20/2 2/19/2 1/49/2
f 63/50/17 47/51/17 45/6/17
f 78/52/18 48/53/18 47/51/18
f 77/54/19 49/55/19 48/53/19
f 76/56/20 50/57/20 49/55/20
f 75/58/21 51/59/21 50/57/21
f 74/60/22 52/61/22 51/59/22
f 73/62/23 53/63/23 52/61/23
f 72/64/24 54/65/24 53/63/24
f 71/66/25 55/67/25 54/65/25
f 70/68/26 56/69/26 55/67/26
f 69/70/27 57/71/27 56/69/27
f 68/10/28 58/72/28 57/71/28
f 67/73/29 59/74/29 58/72/29
f 66/75/30 60/76/30 59/74/30
f 65/77/31 61/78/31 60/76/31
f 64/9/32 46/4/32 61/78/32
f 46/4/33 6/8/33 5/79/33
f 79/7/1 82/80/1 81/2/1
f 82/80/1 83/81/1 81/2/1
f 83/81/1 84/82/1 81/2/1
f 84/82/1 85/83/1 81/2/1
f 85/83/1 86/84/1 81/2/1
f 86/84/1 87/85/1 81/2/1
f 87/85/1 88/86/1 81/2/1
f 88/86/1 89/87/1 81/2/1
f 89/87/1 90/88/1 81/2/1
f 90/88/1 91/89/1 81/2/1
f 91/89/1 92/90/1 81/2/1
f 92/90/1 93/91/1 81/2/1
f 93/91/1 94/92/1 81/2/1
f 94/92/1 95/93/1 81/2/1
f 95/93/1 96/94/1 81/2/1
f 96/94/1 80/3/1 81/2/1
f 97/16/2 100/95/2 99/12/2
f 100/95/2 101/96/2 99/12/2
f 101/96/2 102/97/2 99/12/2
f 102/97/2 103/98/2 99/12/2
f 103/98/2 104/99/2 99/12/2
f 104/99/2 105/100/2 99/12/2
f 105/100/2 106/101/2 99/12/2
f 106/101/2 107/102/2 99/12/2
f 107/102/2 108/103/2 99/12/2
f 108/103/2 109/104/2 99/12/2
f 109/104/2 110/105/2 99/12/2
f 110/105/2 111/106/2 99/12/2
f 111/106/2 112/107/2 99/12/2
f 112/107/2 113/108/2 99/12/2
f 113/108/2 114/109/2 99/12/2
f 114/109/2 98/13/2 99/12/2
f 80/3/4 100/95/4 97/16/4
f 96/94/34 101/96/34 100/95/34
f 95/93/35 102/97/35 101/96/35
f 94/92/36 103/98/36 102/97/36
f 93/91/37 104/99/37 103/98/37
f 92/90/38 105/100/38 104/99/38
f 91/89/39 106/101/39 105/100/39
f 90/88/40 107/102/40 106/101/40
f 89/87/41 108/103/41 107/102/41
f 88/86/42 109/104/42 108/103/42
f 87/85/43 110/105/43 109/104/43
f 86/84/44 111/106/44 110/105/44
f 85/83/45 112/107/45 111/106/45
f 84/82/46 113/108/46 112/107/46
f 83/81/47 114/109/47 113/108/47
f 82/80/48 98/13/48 114/109/48
f 5/79/49 98/13/49 79/7/49
f 2/19/50 4/17/50 1/49/50
f 43/110/32 13/30/32 12/27/32
f 41/111/51 15/33/51 14/29/51
f 80/3/1 4/17/1 7/18/1
f 4/17/1 3/112/1 7/18/1
f 7/18/1 10/1/1 80/3/1
f 46/4/33 5/79/33 9/5/33
f 9/5/1 8/15/1 45/6/1
f 45/6/1 47/51/1 46/4/1
f 47/51/1 48/53/1 46/4/1
f 48/53/1 49/55/1 46/4/1
f 49/55/1 50/57/1 46/4/1
f 50/57/1 51/59/1 46/4/1
f 51/59/1 52/61/1 46/4/1
f 52/61/1 53/63/1 46/4/1
f 53/63/1 54/65/1 46/4/1
f 54/65/1 55/67/1 46/4/1
f 55/67/1 56/69/1 46/4/1
f 56/69/1 57/71/1 46/4/1
f 57/71/1 58/72/1 61/78/1
f 46/4/1 57/71/1 61/78/1
f 58/72/1 59/74/1 60/76/1
f 60/76/1 61/78/1 58/72/1
f 5/79/1 79/7/1 9/5/1
f 79/7/1 81/2/1 10/1/1
f 63/50/2 26/14/2 29/113/2
f 6/8/33 62/114/33 64/9/33
f 63/50/2 29/113/2 6/8/2
f 77/54/2 78/52/2 6/8/2
f 78/52/2 63/50/2 6/8/2
f 75/58/2 76/56/2 6/8/2
f 76/56/2 77/54/2 6/8/2
f 73/62/2 74/60/2 6/8/2
f 74/60/2 75/58/2 6/8/2
f 71/66/2 72/64/2 6/8/2
f 72/64/2 73/62/2 6/8/2
f 69/70/2 70/68/2 6/8/2
f 70/68/2 71/66/2 6/8/2
f 67/73/2 68/10/2 64/9/2
f 68/10/2 69/70/2 6/8/2
f 67/73/2 64/9/2 65/77/2
f 65/77/2 66/75/2 67/73/2
f 6/8/2 29/113/2 98/13/2
f 29/113/2 28/11/2 98/13/2
f 26/14/3 63/50/3 45/6/3
f 97/16/4 1/49/4 4/17/4
f 7/18/5 3/112/5 2/19/5
f 10/1/1 7/18/1 11/25/1
f 10/1/1 11/25/1 12/27/1
f 8/15/1 9/5/1 25/47/1
f 9/5/1 10/1/1 23/43/1
f 25/47/1 9/5/1 24/45/1
f 24/45/1 9/5/1 23/43/1
f 10/1/1 12/27/1 13/30/1
f 10/1/1 13/30/1 14/29/1
f 10/1/1 14/29/1 15/33/1
f 10/1/1 15/33/1 16/32/1
f 22/41/1 23/43/1 10/1/1
f 21/39/1 22/41/1 10/1/1
f 10/1/1 16/32/1 17/35/1
f 10/1/1 17/35/1 18/36/1
f 20/22/1 21/39/1 10/1/1
f 10/1/1 18/36/1 19/21/1
f 29/113/2 26/14/2 30/48/2
f 29/113/2 30/48/2 31/46/2
f 44/26/2 27/20/2 28/11/2
f 43/110/2 44/26/2 28/11/2
f 28/11/2 29/113/2 32/44/2
f 29/113/2 31/46/2 32/44/2
f 42/28/2 43/110/2 28/11/2
f 41/111/2 42/28/2 28/11/2
f 28/11/2 32/44/2 33/42/2
f 28/11/2 33/42/2 34/40/2
f 40/31/2 41/111/2 28/11/2
f 39/34/2 40/31/2 28/11/2
f 28/11/2 34/40/2 35/38/2
f 28/11/2 35/38/2 36/37/2
f 38/24/2 39/34/2 28/11/2
f 28/11/2 36/37/2 37/23/2
f 27/20/5 44/26/5 11/25/5
f 44/26/5 43/110/5 12/27/5
f 42/28/6 41/111/6 14/29/6
f 40/31/7 39/34/7 16/32/7
f 39/34/8 38/24/8 17/35/8
f 38/24/9 37/23/9 18/36/9
f 37/23/10 36/37/10 19/21/10
f 36/37/11 35/38/11 20/22/11
f 35/38/12 34/40/12 21/39/12
f 34/40/13 33/42/13 22/41/13
f 33/42/14 32/44/14 23/43/14
f 32/44/15 31/46/15 24/45/15
f 31/46/16 30/48/16 25/47/16
f 30/48/3 26/14/3 8/15/3
f 1/49/2 97/16/2 27/20/2
f 97/16/2 99/12/2 28/11/2
f 27/20/2 97/16/2 28/11/2
f 63/50/17 78/52/17 47/51/17
f 78/52/18 77/54/18 48/53/18
f 77/54/19 76/56/19 49/55/19
f 76/56/20 75/58/20 50/57/20
f 75/58/21 74/60/21 51/59/21
f 74/60/22 73/62/22 52/61/22
f 73/62/23 72/64/23 53/63/23
f 72/64/24 71/66/24 54/65/24
f 71/66/25 70/68/25 55/67/25
f 70/68/26 69/70/26 56/69/26
f 69/70/27 68/10/27 57/71/27
f 68/10/28 67/73/28 58/72/28
f 67/73/29 66/75/29 59/74/29
f 66/75/30 65/77/30 60/76/30
f 65/77/31 64/9/31 61/78/31
f 64/9/32 62/114/32 46/4/32
f 46/4/33 62/114/33 6/8/33
f 80/3/4 96/94/4 100/95/4
f 96/94/34 95/93/34 101/96/34
f 95/93/35 94/92/35 102/97/35
f 94/92/36 93/91/36 103/98/36
f 93/91/37 92/90/37 104/99/37
f 92/90/38 91/89/38 105/100/38
f 91/89/39 90/88/39 106/101/39
f 90/88/40 89/87/40 107/102/40
f 89/87/52 88/86/52 108/103/52
f 88/86/42 87/85/42 109/104/42
f 87/85/43 86/84/43 110/105/43
f 86/84/44 85/83/44 111/106/44
f 85/83/53 84/82/53 112/107/53
f 84/82/46 83/81/46 113/108/46
f 83/81/47 82/80/47 114/109/47
f 82/80/48 79/7/48 98/13/48
f 5/79/49 6/8/49 98/13/49
f 2/19/50 3/112/50 4/17/50
f 43/110/32 42/28/32 13/30/32
f 41/111/51 40/31/51 15/33/51
